ffmpeg started on 2026-01-13 at 10:57:32
Report written to "D:\Convert\FFMetrics\reports\psnr_report-6.txt"
Log level: 32
Command line:
ffmpeg -hide_banner -nostdin -r 24000/1001 -i "F:\\Convert\\files\\[DC] Make Heroine ga Oosugiru - 07_Telegram_HEVC(125).mkv" -r 24000/1001 -i "F:\\Convert\\files\\[DC] Make Heroine ga Oosugiru - 07_Telegram.mp4" -lavfi "[0:v]settb=AVTB,setpts=PTS-STARTPTS,format=pix_fmts=yuv420p10le,fps=24000/1001,scale=1920:1080:flags=lanczos:param0=3:out_range=limited:out_color_matrix=bt709:out_chroma_loc=left,setsar=1/1,setdar=(1920/1080)*(1/1),colorspace=format=yuv420p10:range=tv:primaries=bt709:trc=bt709:space=bt709:fast=0[main];[1:v]settb=AVTB,setpts=PTS-STARTPTS,format=pix_fmts=yuv420p,fps=24000/1001,scale=1920:1080:flags=lanczos:param0=3:out_range=limited:out_color_matrix=bt709:out_chroma_loc=left,setsar=1.000,setdar=1.778,colorspace=format=yuv420p:range=tv:primaries=bt709:trc=bt709:space=bt709:fast=0[ref];[main][ref]psnr=eof_action=endall:stats_file='D\\:/Convert/FFMetrics/logs/psnr_logfile-6.txt'" -f null -
Input #0, matroska,webm, from 'F:\Convert\files\[DC] Make Heroine ga Oosugiru - 07_Telegram_HEVC(125).mkv':
  Metadata:
    COMPATIBLE_BRANDS: isomiso2avc1mp41
    MAJOR_BRAND     : isom
    MINOR_VERSION   : 512
    ENCODER         : Lavf61.7.100
  Duration: 00:24:06.79, start: -0.021000, bitrate: 988 kb/s
  Stream #0:0: Video: hevc (Main 10), yuv420p10le(tv, bt709, progressive), 1920x1080 [SAR 1:1 DAR 16:9], 23.98 fps, 23.98 tbr, 1k tbn (default)
      Metadata:
        HANDLER_NAME    : VideoHandler
        VENDOR_ID       : [0][0][0][0]
        ENCODER         : Lavc61.19.100 libx265
        BPS             : 791536
        DURATION        : 00:24:06.569708333
        NUMBER_OF_FRAMES: 34683
        NUMBER_OF_BYTES : 143126570
        _STATISTICS_WRITING_APP: mkvpropedit v94.0 ('Initiate') 64-bit
        _STATISTICS_WRITING_DATE_UTC: 2026-01-12 17:59:49
        _STATISTICS_TAGS: BPS DURATION NUMBER_OF_FRAMES NUMBER_OF_BYTES
  Stream #0:1: Audio: aac (LC), 48000 Hz, stereo, fltp (default)
      Metadata:
        HANDLER_NAME    : SoundHandler
        VENDOR_ID       : [0][0][0][0]
        ENCODER         : Lavc61.19.100 aac
        BPS             : 193194
        DURATION        : 00:24:06.784000000
        NUMBER_OF_FRAMES: 67819
        NUMBER_OF_BYTES : 34938755
        _STATISTICS_WRITING_APP: mkvpropedit v94.0 ('Initiate') 64-bit
        _STATISTICS_WRITING_DATE_UTC: 2026-01-12 17:59:49
        _STATISTICS_TAGS: BPS DURATION NUMBER_OF_FRAMES NUMBER_OF_BYTES
Input #1, mov,mp4,m4a,3gp,3g2,mj2, from 'F:\Convert\files\[DC] Make Heroine ga Oosugiru - 07_Telegram.mp4':
  Metadata:
    major_brand     : isom
    minor_version   : 512
    compatible_brands: isomiso2avc1mp41
    encoder         : Lavf60.16.100
  Duration: 00:24:06.74, start: 0.000000, bitrate: 3764 kb/s
  Stream #1:0[0x1](und): Video: h264 (High) (avc1 / 0x31637661), yuv420p(tv, bt709, progressive), 1920x1080 [SAR 1:1 DAR 16:9], 3616 kb/s, 23.98 fps, 23.98 tbr, 24k tbn (default)
      Metadata:
        handler_name    : VideoHandler
        vendor_id       : [0][0][0][0]
        encoder         : Lavc60.31.102 h264_qsv
  Stream #1:1[0x2](und): Audio: aac (HE-AACv2) (mp4a / 0x6134706D), 48000 Hz, stereo, fltp, 144 kb/s (default)
      Metadata:
        handler_name    : SoundHandler
        vendor_id       : [0][0][0][0]
Stream mapping:
  Stream #0:0 (hevc) -> settb:default
  Stream #1:0 (h264) -> settb:default
  psnr:default -> Stream #0:0 (wrapped_avframe)
  Stream #0:1 -> #0:1 (aac (native) -> pcm_s16le (native))
Output #0, null, to 'pipe:':
  Metadata:
    COMPATIBLE_BRANDS: isomiso2avc1mp41
    MAJOR_BRAND     : isom
    MINOR_VERSION   : 512
    encoder         : Lavf61.7.100
  Stream #0:0: Video: wrapped_avframe, yuv420p10le(tv, bt709, progressive), 1920x1080 [SAR 1:1 DAR 16:9], q=2-31, 200 kb/s, 23.98 fps, 23.98 tbn
      Metadata:
        encoder         : Lavc61.19.100 wrapped_avframe
  Stream #0:1: Audio: pcm_s16le, 48000 Hz, stereo, s16, 1536 kb/s (default)
      Metadata:
        HANDLER_NAME    : SoundHandler
        VENDOR_ID       : [0][0][0][0]
        _STATISTICS_TAGS: BPS DURATION NUMBER_OF_FRAMES NUMBER_OF_BYTES
        BPS             : 193194
        DURATION        : 00:24:06.784000000
        NUMBER_OF_FRAMES: 67819
        NUMBER_OF_BYTES : 34938755
        _STATISTICS_WRITING_APP: mkvpropedit v94.0 ('Initiate') 64-bit
        _STATISTICS_WRITING_DATE_UTC: 2026-01-12 17:59:49
        encoder         : Lavc61.19.100 pcm_s16le
frame=  141 fps=0.0 q=-0.0 size=N/A time=00:00:05.88 bitrate=N/A speed=11.3x    frame=  332 fps=322 q=-0.0 size=N/A time=00:00:13.84 bitrate=N/A speed=13.4x    frame=  532 fps=342 q=-0.0 size=N/A time=00:00:22.18 bitrate=N/A speed=14.3x    frame=  725 fps=351 q=-0.0 size=N/A time=00:00:30.23 bitrate=N/A speed=14.6x    frame=  910 fps=353 q=-0.0 size=N/A time=00:00:37.95 bitrate=N/A speed=14.7x    frame= 1057 fps=342 q=-0.0 size=N/A time=00:00:44.08 bitrate=N/A speed=14.3x    frame= 1208 fps=334 q=-0.0 size=N/A time=00:00:50.38 bitrate=N/A speed=13.9x    frame= 1373 fps=333 q=-0.0 size=N/A time=00:00:57.26 bitrate=N/A speed=13.9x    frame= 1502 fps=323 q=-0.0 size=N/A time=00:01:02.64 bitrate=N/A speed=13.5x    frame= 1642 fps=318 q=-0.0 size=N/A time=00:01:08.48 bitrate=N/A speed=13.3x    frame= 1801 fps=318 q=-0.0 size=N/A time=00:01:15.11 bitrate=N/A speed=13.2x    frame= 1955 fps=316 q=-0.0 size=N/A time=00:01:21.53 bitrate=N/A speed=13.2x    frame= 2083 fps=310 q=-0.0 size=N/A time=00:01:26.87 bitrate=N/A speed=12.9x    frame= 2210 fps=306 q=-0.0 size=N/A time=00:01:32.17 bitrate=N/A speed=12.8x    frame= 2348 fps=303 q=-0.0 size=N/A time=00:01:37.93 bitrate=N/A speed=12.7x    frame= 2476 fps=300 q=-0.0 size=N/A time=00:01:43.26 bitrate=N/A speed=12.5x    frame= 2549 fps=291 q=-0.0 size=N/A time=00:01:46.31 bitrate=N/A speed=12.1x    frame= 2684 fps=289 q=-0.0 size=N/A time=00:01:51.94 bitrate=N/A speed=12.1x    frame= 2854 fps=291 q=-0.0 size=N/A time=00:01:59.03 bitrate=N/A speed=12.2x    frame= 3024 fps=293 q=-0.0 size=N/A time=00:02:06.12 bitrate=N/A speed=12.2x    frame= 3196 fps=295 q=-0.0 size=N/A time=00:02:13.29 bitrate=N/A speed=12.3x    frame= 3367 fps=297 q=-0.0 size=N/A time=00:02:20.43 bitrate=N/A speed=12.4x    frame= 3554 fps=300 q=-0.0 size=N/A time=00:02:28.23 bitrate=N/A speed=12.5x    frame= 3749 fps=303 q=-0.0 size=N/A time=00:02:36.36 bitrate=N/A speed=12.6x    frame= 3941 fps=306 q=-0.0 size=N/A time=00:02:44.37 bitrate=N/A speed=12.8x    frame= 4141 fps=309 q=-0.0 size=N/A time=00:02:52.71 bitrate=N/A speed=12.9x    frame= 4341 fps=312 q=-0.0 size=N/A time=00:03:01.05 bitrate=N/A speed=  13x    frame= 4518 fps=313 q=-0.0 size=N/A time=00:03:08.43 bitrate=N/A speed=13.1x    frame= 4698 fps=314 q=-0.0 size=N/A time=00:03:15.94 bitrate=N/A speed=13.1x    frame= 4867 fps=314 q=-0.0 size=N/A time=00:03:22.99 bitrate=N/A speed=13.1x    frame= 5041 fps=315 q=-0.0 size=N/A time=00:03:30.25 bitrate=N/A speed=13.2x    frame= 5229 fps=317 q=-0.0 size=N/A time=00:03:38.09 bitrate=N/A speed=13.2x    frame= 5427 fps=319 q=-0.0 size=N/A time=00:03:46.35 bitrate=N/A speed=13.3x    frame= 5619 fps=320 q=-0.0 size=N/A time=00:03:54.35 bitrate=N/A speed=13.4x    frame= 5798 fps=321 q=-0.0 size=N/A time=00:04:01.82 bitrate=N/A speed=13.4x    frame= 5980 fps=322 q=-0.0 size=N/A time=00:04:09.41 bitrate=N/A speed=13.4x    frame= 6175 fps=324 q=-0.0 size=N/A time=00:04:17.54 bitrate=N/A speed=13.5x    frame= 6353 fps=324 q=-0.0 size=N/A time=00:04:24.97 bitrate=N/A speed=13.5x    frame= 6549 fps=326 q=-0.0 size=N/A time=00:04:33.14 bitrate=N/A speed=13.6x    frame= 6727 fps=326 q=-0.0 size=N/A time=00:04:40.57 bitrate=N/A speed=13.6x    frame= 6915 fps=327 q=-0.0 size=N/A time=00:04:48.41 bitrate=N/A speed=13.6x    frame= 7093 fps=328 q=-0.0 size=N/A time=00:04:55.83 bitrate=N/A speed=13.7x    frame= 7276 fps=328 q=-0.0 size=N/A time=00:05:03.46 bitrate=N/A speed=13.7x    frame= 7399 fps=326 q=-0.0 size=N/A time=00:05:08.59 bitrate=N/A speed=13.6x    frame= 7571 fps=326 q=-0.0 size=N/A time=00:05:15.77 bitrate=N/A speed=13.6x    frame= 7746 fps=327 q=-0.0 size=N/A time=00:05:23.07 bitrate=N/A speed=13.6x    frame= 7937 fps=327 q=-0.0 size=N/A time=00:05:31.03 bitrate=N/A speed=13.7x    frame= 8129 fps=328 q=-0.0 size=N/A time=00:05:39.04 bitrate=N/A speed=13.7x    frame= 8314 fps=329 q=-0.0 size=N/A time=00:05:46.76 bitrate=N/A speed=13.7x    frame= 8477 fps=329 q=-0.0 size=N/A time=00:05:53.56 bitrate=N/A speed=13.7x    frame= 8658 fps=329 q=-0.0 size=N/A time=00:06:01.11 bitrate=N/A speed=13.7x    frame= 8833 fps=329 q=-0.0 size=N/A time=00:06:08.40 bitrate=N/A speed=13.7x    frame= 9007 fps=329 q=-0.0 size=N/A time=00:06:15.66 bitrate=N/A speed=13.7x    frame= 9192 fps=330 q=-0.0 size=N/A time=00:06:23.38 bitrate=N/A speed=13.8x    frame= 9372 fps=330 q=-0.0 size=N/A time=00:06:30.89 bitrate=N/A speed=13.8x    frame= 9555 fps=331 q=-0.0 size=N/A time=00:06:38.52 bitrate=N/A speed=13.8x    frame= 9719 fps=330 q=-0.0 size=N/A time=00:06:45.36 bitrate=N/A speed=13.8x    frame= 9881 fps=330 q=-0.0 size=N/A time=00:06:52.12 bitrate=N/A speed=13.8x    frame=10071 fps=331 q=-0.0 size=N/A time=00:07:00.04 bitrate=N/A speed=13.8x    frame=10256 fps=331 q=-0.0 size=N/A time=00:07:07.76 bitrate=N/A speed=13.8x    frame=10432 fps=332 q=-0.0 size=N/A time=00:07:15.10 bitrate=N/A speed=13.8x    frame=10638 fps=333 q=-0.0 size=N/A time=00:07:23.69 bitrate=N/A speed=13.9x    frame=10812 fps=333 q=-0.0 size=N/A time=00:07:30.95 bitrate=N/A speed=13.9x    frame=11010 fps=333 q=-0.0 size=N/A time=00:07:39.20 bitrate=N/A speed=13.9x    frame=11191 fps=334 q=-0.0 size=N/A time=00:07:46.75 bitrate=N/A speed=13.9x    frame=11370 fps=334 q=-0.0 size=N/A time=00:07:54.22 bitrate=N/A speed=13.9x    frame=11556 fps=334 q=-0.0 size=N/A time=00:08:01.98 bitrate=N/A speed=13.9x    frame=11740 fps=335 q=-0.0 size=N/A time=00:08:09.65 bitrate=N/A speed=  14x    frame=11932 fps=335 q=-0.0 size=N/A time=00:08:17.66 bitrate=N/A speed=  14x    frame=12129 fps=336 q=-0.0 size=N/A time=00:08:25.88 bitrate=N/A speed=  14x    frame=12277 fps=335 q=-0.0 size=N/A time=00:08:32.05 bitrate=N/A speed=  14x    frame=12473 fps=336 q=-0.0 size=N/A time=00:08:40.22 bitrate=N/A speed=  14x    frame=12658 fps=336 q=-0.0 size=N/A time=00:08:47.94 bitrate=N/A speed=  14x    frame=12840 fps=336 q=-0.0 size=N/A time=00:08:55.53 bitrate=N/A speed=  14x    frame=13021 fps=337 q=-0.0 size=N/A time=00:09:03.08 bitrate=N/A speed=  14x    frame=13198 fps=337 q=-0.0 size=N/A time=00:09:10.46 bitrate=N/A speed=  14x    frame=13370 fps=337 q=-0.0 size=N/A time=00:09:17.64 bitrate=N/A speed=  14x    frame=13549 fps=337 q=-0.0 size=N/A time=00:09:25.10 bitrate=N/A speed=  14x    frame=13736 fps=337 q=-0.0 size=N/A time=00:09:32.90 bitrate=N/A speed=14.1x    frame=13912 fps=337 q=-0.0 size=N/A time=00:09:40.24 bitrate=N/A speed=14.1x    frame=14090 fps=337 q=-0.0 size=N/A time=00:09:47.67 bitrate=N/A speed=14.1x    frame=14263 fps=337 q=-0.0 size=N/A time=00:09:54.88 bitrate=N/A speed=14.1x    frame=14457 fps=338 q=-0.0 size=N/A time=00:10:02.97 bitrate=N/A speed=14.1x    frame=14631 fps=338 q=-0.0 size=N/A time=00:10:10.23 bitrate=N/A speed=14.1x    frame=14791 fps=337 q=-0.0 size=N/A time=00:10:16.90 bitrate=N/A speed=14.1x    frame=14984 fps=338 q=-0.0 size=N/A time=00:10:24.95 bitrate=N/A speed=14.1x    frame=15146 fps=337 q=-0.0 size=N/A time=00:10:31.71 bitrate=N/A speed=14.1x    frame=15327 fps=338 q=-0.0 size=N/A time=00:10:39.26 bitrate=N/A speed=14.1x    frame=15503 fps=338 q=-0.0 size=N/A time=00:10:46.60 bitrate=N/A speed=14.1x    frame=15673 fps=338 q=-0.0 size=N/A time=00:10:53.69 bitrate=N/A speed=14.1x    frame=15835 fps=337 q=-0.0 size=N/A time=00:11:00.45 bitrate=N/A speed=14.1x    frame=16021 fps=337 q=-0.0 size=N/A time=00:11:08.20 bitrate=N/A speed=14.1x    frame=16203 fps=338 q=-0.0 size=N/A time=00:11:15.80 bitrate=N/A speed=14.1x    frame=16390 fps=338 q=-0.0 size=N/A time=00:11:23.59 bitrate=N/A speed=14.1x    frame=16577 fps=338 q=-0.0 size=N/A time=00:11:31.39 bitrate=N/A speed=14.1x    frame=16763 fps=338 q=-0.0 size=N/A time=00:11:39.15 bitrate=N/A speed=14.1x    frame=16949 fps=339 q=-0.0 size=N/A time=00:11:46.91 bitrate=N/A speed=14.1x    frame=17094 fps=338 q=-0.0 size=N/A time=00:11:52.96 bitrate=N/A speed=14.1x    frame=17278 fps=338 q=-0.0 size=N/A time=00:12:00.63 bitrate=N/A speed=14.1x    frame=17471 fps=339 q=-0.0 size=N/A time=00:12:08.68 bitrate=N/A speed=14.1x    frame=17652 fps=339 q=-0.0 size=N/A time=00:12:16.23 bitrate=N/A speed=14.1x    frame=17852 fps=339 q=-0.0 size=N/A time=00:12:24.57 bitrate=N/A speed=14.1x    frame=18041 fps=340 q=-0.0 size=N/A time=00:12:32.46 bitrate=N/A speed=14.2x    frame=18218 fps=340 q=-0.0 size=N/A time=00:12:39.84 bitrate=N/A speed=14.2x    frame=18395 fps=340 q=-0.0 size=N/A time=00:12:47.22 bitrate=N/A speed=14.2x    frame=18586 fps=340 q=-0.0 size=N/A time=00:12:55.19 bitrate=N/A speed=14.2x    frame=18771 fps=340 q=-0.0 size=N/A time=00:13:02.90 bitrate=N/A speed=14.2x    frame=18964 fps=340 q=-0.0 size=N/A time=00:13:10.95 bitrate=N/A speed=14.2x    frame=19156 fps=341 q=-0.0 size=N/A time=00:13:18.96 bitrate=N/A speed=14.2x    frame=19336 fps=341 q=-0.0 size=N/A time=00:13:26.47 bitrate=N/A speed=14.2x    frame=19514 fps=341 q=-0.0 size=N/A time=00:13:33.89 bitrate=N/A speed=14.2x    frame=19645 fps=340 q=-0.0 size=N/A time=00:13:39.36 bitrate=N/A speed=14.2x    frame=19827 fps=340 q=-0.0 size=N/A time=00:13:46.95 bitrate=N/A speed=14.2x    frame=19999 fps=340 q=-0.0 size=N/A time=00:13:54.12 bitrate=N/A speed=14.2x    frame=20167 fps=340 q=-0.0 size=N/A time=00:14:01.13 bitrate=N/A speed=14.2x    frame=20343 fps=340 q=-0.0 size=N/A time=00:14:08.47 bitrate=N/A speed=14.2x    frame=20509 fps=340 q=-0.0 size=N/A time=00:14:15.39 bitrate=N/A speed=14.2x    frame=20653 fps=339 q=-0.0 size=N/A time=00:14:21.40 bitrate=N/A speed=14.1x    frame=20827 fps=339 q=-0.0 size=N/A time=00:14:28.65 bitrate=N/A speed=14.1x    frame=21009 fps=339 q=-0.0 size=N/A time=00:14:36.25 bitrate=N/A speed=14.2x    frame=21178 fps=339 q=-0.0 size=N/A time=00:14:43.29 bitrate=N/A speed=14.1x    frame=21357 fps=339 q=-0.0 size=N/A time=00:14:50.76 bitrate=N/A speed=14.1x    frame=21555 fps=340 q=-0.0 size=N/A time=00:14:59.02 bitrate=N/A speed=14.2x    frame=21758 fps=340 q=-0.0 size=N/A time=00:15:07.48 bitrate=N/A speed=14.2x    frame=21908 fps=340 q=-0.0 size=N/A time=00:15:13.74 bitrate=N/A speed=14.2x    frame=22083 fps=340 q=-0.0 size=N/A time=00:15:21.04 bitrate=N/A speed=14.2x    frame=22278 fps=340 q=-0.0 size=N/A time=00:15:29.17 bitrate=N/A speed=14.2x    frame=22471 fps=340 q=-0.0 size=N/A time=00:15:37.22 bitrate=N/A speed=14.2x    frame=22663 fps=341 q=-0.0 size=N/A time=00:15:45.23 bitrate=N/A speed=14.2x    frame=22845 fps=341 q=-0.0 size=N/A time=00:15:52.82 bitrate=N/A speed=14.2x    frame=23028 fps=341 q=-0.0 size=N/A time=00:16:00.45 bitrate=N/A speed=14.2x    frame=23207 fps=341 q=-0.0 size=N/A time=00:16:07.92 bitrate=N/A speed=14.2x    frame=23339 fps=340 q=-0.0 size=N/A time=00:16:13.43 bitrate=N/A speed=14.2x    frame=23483 fps=340 q=-0.0 size=N/A time=00:16:19.43 bitrate=N/A speed=14.2x    frame=23669 fps=340 q=-0.0 size=N/A time=00:16:27.19 bitrate=N/A speed=14.2x    frame=23859 fps=340 q=-0.0 size=N/A time=00:16:35.11 bitrate=N/A speed=14.2x    frame=24039 fps=340 q=-0.0 size=N/A time=00:16:42.62 bitrate=N/A speed=14.2x    frame=24217 fps=340 q=-0.0 size=N/A time=00:16:50.05 bitrate=N/A speed=14.2x    frame=24401 fps=340 q=-0.0 size=N/A time=00:16:57.72 bitrate=N/A speed=14.2x    frame=24590 fps=340 q=-0.0 size=N/A time=00:17:05.60 bitrate=N/A speed=14.2x    frame=24779 fps=341 q=-0.0 size=N/A time=00:17:13.49 bitrate=N/A speed=14.2x    frame=24951 fps=341 q=-0.0 size=N/A time=00:17:20.66 bitrate=N/A speed=14.2x    frame=25128 fps=341 q=-0.0 size=N/A time=00:17:28.04 bitrate=N/A speed=14.2x    frame=25307 fps=341 q=-0.0 size=N/A time=00:17:35.51 bitrate=N/A speed=14.2x    frame=25474 fps=340 q=-0.0 size=N/A time=00:17:42.47 bitrate=N/A speed=14.2x    frame=25621 fps=340 q=-0.0 size=N/A time=00:17:48.60 bitrate=N/A speed=14.2x    frame=25761 fps=340 q=-0.0 size=N/A time=00:17:54.44 bitrate=N/A speed=14.2x    frame=25943 fps=340 q=-0.0 size=N/A time=00:18:02.03 bitrate=N/A speed=14.2x    frame=26118 fps=340 q=-0.0 size=N/A time=00:18:09.33 bitrate=N/A speed=14.2x    frame=26306 fps=340 q=-0.0 size=N/A time=00:18:17.17 bitrate=N/A speed=14.2x    frame=26488 fps=340 q=-0.0 size=N/A time=00:18:24.77 bitrate=N/A speed=14.2x    frame=26674 fps=340 q=-0.0 size=N/A time=00:18:32.52 bitrate=N/A speed=14.2x    frame=26864 fps=340 q=-0.0 size=N/A time=00:18:40.45 bitrate=N/A speed=14.2x    frame=27040 fps=340 q=-0.0 size=N/A time=00:18:47.79 bitrate=N/A speed=14.2x    frame=27214 fps=340 q=-0.0 size=N/A time=00:18:55.05 bitrate=N/A speed=14.2x    frame=27395 fps=340 q=-0.0 size=N/A time=00:19:02.59 bitrate=N/A speed=14.2x    frame=27581 fps=340 q=-0.0 size=N/A time=00:19:10.35 bitrate=N/A speed=14.2x    frame=27772 fps=341 q=-0.0 size=N/A time=00:19:18.32 bitrate=N/A speed=14.2x    frame=27965 fps=341 q=-0.0 size=N/A time=00:19:26.37 bitrate=N/A speed=14.2x    frame=28111 fps=341 q=-0.0 size=N/A time=00:19:32.46 bitrate=N/A speed=14.2x    frame=28300 fps=341 q=-0.0 size=N/A time=00:19:40.34 bitrate=N/A speed=14.2x    frame=28464 fps=341 q=-0.0 size=N/A time=00:19:47.18 bitrate=N/A speed=14.2x    frame=28652 fps=341 q=-0.0 size=N/A time=00:19:55.02 bitrate=N/A speed=14.2x    frame=28827 fps=341 q=-0.0 size=N/A time=00:20:02.32 bitrate=N/A speed=14.2x    frame=28992 fps=341 q=-0.0 size=N/A time=00:20:09.20 bitrate=N/A speed=14.2x    frame=29148 fps=340 q=-0.0 size=N/A time=00:20:15.71 bitrate=N/A speed=14.2x    frame=29302 fps=340 q=-0.0 size=N/A time=00:20:22.13 bitrate=N/A speed=14.2x    frame=29442 fps=340 q=-0.0 size=N/A time=00:20:27.97 bitrate=N/A speed=14.2x    frame=29587 fps=339 q=-0.0 size=N/A time=00:20:34.02 bitrate=N/A speed=14.2x    frame=29738 fps=339 q=-0.0 size=N/A time=00:20:40.32 bitrate=N/A speed=14.1x    frame=29891 fps=339 q=-0.0 size=N/A time=00:20:46.70 bitrate=N/A speed=14.1x    frame=30036 fps=339 q=-0.0 size=N/A time=00:20:52.75 bitrate=N/A speed=14.1x    frame=30217 fps=339 q=-0.0 size=N/A time=00:21:00.30 bitrate=N/A speed=14.1x    frame=30347 fps=338 q=-0.0 size=N/A time=00:21:05.72 bitrate=N/A speed=14.1x    frame=30527 fps=338 q=-0.0 size=N/A time=00:21:13.23 bitrate=N/A speed=14.1x    frame=30719 fps=338 q=-0.0 size=N/A time=00:21:21.23 bitrate=N/A speed=14.1x    frame=30912 fps=339 q=-0.0 size=N/A time=00:21:29.28 bitrate=N/A speed=14.1x    frame=31102 fps=339 q=-0.0 size=N/A time=00:21:37.21 bitrate=N/A speed=14.1x    frame=31296 fps=339 q=-0.0 size=N/A time=00:21:45.30 bitrate=N/A speed=14.1x    frame=31470 fps=339 q=-0.0 size=N/A time=00:21:52.56 bitrate=N/A speed=14.1x    frame=31660 fps=339 q=-0.0 size=N/A time=00:22:00.48 bitrate=N/A speed=14.1x    frame=31845 fps=339 q=-0.0 size=N/A time=00:22:08.20 bitrate=N/A speed=14.1x    frame=32020 fps=339 q=-0.0 size=N/A time=00:22:15.50 bitrate=N/A speed=14.1x    frame=32211 fps=339 q=-0.0 size=N/A time=00:22:23.46 bitrate=N/A speed=14.2x    frame=32405 fps=340 q=-0.0 size=N/A time=00:22:31.55 bitrate=N/A speed=14.2x    frame=32603 fps=340 q=-0.0 size=N/A time=00:22:39.81 bitrate=N/A speed=14.2x    frame=32720 fps=339 q=-0.0 size=N/A time=00:22:44.69 bitrate=N/A speed=14.1x    frame=32876 fps=339 q=-0.0 size=N/A time=00:22:51.20 bitrate=N/A speed=14.1x    frame=33037 fps=339 q=-0.0 size=N/A time=00:22:57.91 bitrate=N/A speed=14.1x    frame=33195 fps=339 q=-0.0 size=N/A time=00:23:04.50 bitrate=N/A speed=14.1x    frame=33351 fps=338 q=-0.0 size=N/A time=00:23:11.01 bitrate=N/A speed=14.1x    frame=33491 fps=338 q=-0.0 size=N/A time=00:23:16.85 bitrate=N/A speed=14.1x    frame=33641 fps=338 q=-0.0 size=N/A time=00:23:23.11 bitrate=N/A speed=14.1x    frame=33769 fps=337 q=-0.0 size=N/A time=00:23:28.44 bitrate=N/A speed=14.1x    frame=33891 fps=337 q=-0.0 size=N/A time=00:23:33.53 bitrate=N/A speed=14.1x    frame=34048 fps=337 q=-0.0 size=N/A time=00:23:40.08 bitrate=N/A speed=  14x    frame=34187 fps=336 q=-0.0 size=N/A time=00:23:45.88 bitrate=N/A speed=  14x    frame=34320 fps=336 q=-0.0 size=N/A time=00:23:51.43 bitrate=N/A speed=  14x    frame=34447 fps=336 q=-0.0 size=N/A time=00:23:56.72 bitrate=N/A speed=  14x    frame=34614 fps=335 q=-0.0 size=N/A time=00:24:03.69 bitrate=N/A speed=  14x    [Parsed_psnr_16 @ 0000022fbe680e40] PSNR y:48.960859 u:50.340984 v:50.390163 average:49.380540 min:37.996513 max:inf
[out#0/null @ 0000022fb1198a00] video:14903KiB audio:271276KiB subtitle:0KiB other streams:0KiB global headers:0KiB muxing overhead: unknown
frame=34683 fps=335 q=-0.0 Lsize=N/A time=00:24:06.57 bitrate=N/A speed=  14x    
